# xmcd
#
# Track frame offsets: 
#        182
#        18892
#        39825
#        56080
#        77312
#        95002
#        116057
#        137875
#        155800
#        172075
#        204465
#        229950
#        248407
#        265502
#        290005
#        313145
#
# Disc length: 4675 seconds
#
# Revision: 3
# Processed by: cddbd v1.5.2PL0 Copyright (c) Steve Scherf et al.
# Submitted via: ExactAudioCopy v1.3
#
DISCID=db124110
DTITLE=Eric Burdon - Animal's Spirit
DYEAR=1900
DGENRE=
TTITLE0=We Gotta Get Out Of This Place
TTITLE1=Don´t Let Me Be Misunderstood
TTITLE2=It´s My Life
TTITLE3=Houes Of The Rising Sun
TTITLE4=When I Was Young
TTITLE5=Nights In White Satin
TTITLE6=Tobacco Road
TTITLE7=Mother Earth
TTITLE8=The Real Me
TTITLE9=Home Dream
TTITLE10=Stop
TTITLE11=Paint It Black
TTITLE12=Have Mercy Judge
TTITLE13=A day In The Life
TTITLE14=Ghetto Child
TTITLE15=Train Thing Medley
EXTD=
EXTT0=
EXTT1=
EXTT2=
EXTT3=
EXTT4=
EXTT5=
EXTT6=
EXTT7=
EXTT8=
EXTT9=
EXTT10=
EXTT11=
EXTT12=
EXTT13=
EXTT14=
EXTT15=
PLAYORDER=
